<svg xmlns="http://www.w3.org/2000/svg" width="150" height="150" viewBox="0 0 150 150">
  <g id="Group_6488" data-name="Group 6488" transform="translate(-960 -3075)">
    <g id="Ellipse_232" data-name="Ellipse 232" transform="translate(960 3075)" fill="#fff" stroke="#2d9189" stroke-width="3">
      <circle cx="75" cy="75" r="75" stroke="none"/>
      <circle cx="75" cy="75" r="73.5" fill="none"/>
    </g>
    <path id="Path_9177" data-name="Path 9177" d="M1362.034,821.741h-9.824l-4.73-14.194h-37.99l-4.731,14.194h-9.822a6.459,6.459,0,0,0-6.452,6.451v45.162a6.459,6.459,0,0,0,6.452,6.451h15.484v5.162h-5.162v2.58h46.452v-2.58h-5.161V879.8h15.484a6.458,6.458,0,0,0,6.451-6.451V828.192A6.458,6.458,0,0,0,1362.034,821.741Zm-22.115,10.322H1315.7l-1.549,15.484h-5.026V829.483a5.154,5.154,0,0,1,7.742,0,5.154,5.154,0,0,1,7.742,0,5.154,5.154,0,0,1,7.742,0,5.154,5.154,0,0,1,7.742,0,5.154,5.154,0,0,1,7.742,0v18.064h-5.6Zm-24.2,25.807,2.323-23.226h18.12L1335,857.87Zm22.766-17.982,2.7,17.982h-3.6Zm4.189-15.5a2.578,2.578,0,0,1-5.155-.067h-.005v-.107l-1.174-14.086h3.957Zm-7.735-.067a2.581,2.581,0,1,1-5.162,0V810.128h3.976Zm-7.742,0a2.58,2.58,0,0,1-5.159.021l1.185-14.214h3.974Zm-7.742,0a2.578,2.578,0,0,1-5.155.067l2.377-14.26h3.957Zm30.961.189a2.581,2.581,0,0,1-5.155-.189l-2.349-14.193h2.709Zm-39.063-14.382h2.708l-2.33,13.982,0,.211h-.015a2.581,2.581,0,0,1-5.155.189Zm-16.414,14.193h9.032a5.143,5.143,0,0,0,2.581,4.444v21.363h7.348l-1.032,10.322h31.312l-1.548-10.322h7.791V828.765a5.144,5.144,0,0,0,2.58-4.444h9.033a3.876,3.876,0,0,1,3.871,3.871V866.9h-74.839v-38.71A3.876,3.876,0,0,1,1294.937,824.321Zm49.032,60.646H1313V879.8h30.968Zm18.065-7.742h-67.1a3.876,3.876,0,0,1-3.871-3.871v-3.871h74.839v3.871A3.876,3.876,0,0,1,1362.034,877.225Z" transform="translate(-293.485 2302.453)" fill="#2d9189"/>
  </g>
</svg>
