<svg xmlns="http://www.w3.org/2000/svg" width="150" height="150" viewBox="0 0 150 150">
  <g id="Group_6490" data-name="Group 6490" transform="translate(-960 -2690)">
    <g id="Ellipse_230" data-name="Ellipse 230" transform="translate(960 2690)" fill="#fff" stroke="#2d9189" stroke-width="3">
      <circle cx="75" cy="75" r="75" stroke="none"/>
      <circle cx="75" cy="75" r="73.5" fill="none"/>
    </g>
    <path id="Path_9178" data-name="Path 9178" d="M1362.974,394.226h-5.161V374.871a6.459,6.459,0,0,0-6.452-6.451h-33.548a6.459,6.459,0,0,0-6.452,6.451v6.452h-20.645v14.193h-5.162v38.71h25.807v7.742a6.46,6.46,0,0,0,6.452,6.452h33.548a6.46,6.46,0,0,0,6.452-6.452V422.613h5.161a2.583,2.583,0,0,0,2.58-2.581V396.807A2.583,2.583,0,0,0,1362.974,394.226Zm0,5.161h-36.129v-2.58h36.129Zm-36.129,2.581h36.129v2.581h-36.129ZM1317.813,371h33.548a3.876,3.876,0,0,1,3.871,3.871v3.871h-41.29v-3.871A3.875,3.875,0,0,1,1317.813,371Zm-6.452,37.657a3.812,3.812,0,0,0-1.29-.237v-2.581h-2.581v2.581a3.871,3.871,0,0,0,0,7.742h2.581a1.29,1.29,0,0,1,0,2.58h-2.581a1.291,1.291,0,0,1-1.29-1.29h-2.581a3.876,3.876,0,0,0,3.871,3.871v2.58h2.581v-2.58a3.813,3.813,0,0,0,1.29-.238v5.078a11.615,11.615,0,1,1,0-22.582Zm0,5.161a3.838,3.838,0,0,0-1.29-.237h-2.581a1.29,1.29,0,0,1,0-2.581h2.581a1.292,1.292,0,0,1,1.29,1.291ZM1293.3,383.9h18.065v11.613H1293.3Zm-5.161,47.742V398.1h23.226v2.825a14.194,14.194,0,1,0,0,27.9v2.824Zm63.226,14.194h-33.548a3.875,3.875,0,0,1-3.871-3.871V438.1h41.29v3.871A3.876,3.876,0,0,1,1351.361,445.839Zm3.871-10.323h-41.29V381.323h41.29v12.9h-28.387a2.583,2.583,0,0,0-2.581,2.581v23.225a2.583,2.583,0,0,0,2.581,2.581h28.387Zm-28.387-15.484v-12.9h36.129v12.9Z" transform="translate(-290.554 2356.58)" fill="#2d9189"/>
  </g>
</svg>
