<svg xmlns="http://www.w3.org/2000/svg" width="150" height="150" viewBox="0 0 150 150">
  <g id="Group_6495" data-name="Group 6495" transform="translate(-770 -3075)">
    <g id="Ellipse_234" data-name="Ellipse 234" transform="translate(770 3075)" fill="#fff" stroke="#2d9189" stroke-width="3">
      <circle cx="75" cy="75" r="75" stroke="none"/>
      <circle cx="75" cy="75" r="73.5" fill="none"/>
    </g>
    <g id="Group_6416" data-name="Group 6416" transform="translate(245.191 2300.945)">
      <path id="Path_9202" data-name="Path 9202" d="M580.454,837.442v-2.58h3.871v-3.871a3.875,3.875,0,0,0-3.871-3.871h-2.581a1.291,1.291,0,0,1-1.29-1.291v-1.29h3.871a1.291,1.291,0,0,1,1.29,1.29h2.581a3.875,3.875,0,0,0-3.871-3.87v-2.581h-2.581v2.581H574v3.87a3.875,3.875,0,0,0,3.871,3.871h2.581a1.291,1.291,0,0,1,1.29,1.291v1.29h-3.871a1.291,1.291,0,0,1-1.29-1.29H574a3.875,3.875,0,0,0,3.871,3.871v2.58Zm0,0" fill="#2d9189"/>
      <path id="Path_9203" data-name="Path 9203" d="M593.357,828.41A14.194,14.194,0,1,0,579.163,842.6a14.21,14.21,0,0,0,14.194-14.194Zm-25.806,0a11.612,11.612,0,1,1,11.612,11.613,11.625,11.625,0,0,1-11.612-11.613Zm0,0" fill="#2d9189"/>
      <path id="Path_9204" data-name="Path 9204" d="M633.357,837.442H622.279l15.281-15.281A7.677,7.677,0,1,0,626.7,811.3l-26.138,26.138h-4.3a19.351,19.351,0,1,0-26.138,8.074v26.765a6.459,6.459,0,0,0,6.452,6.452h12.45l12.027,9.622a3.2,3.2,0,0,0,5.2-2.5v-7.122h27.1a6.459,6.459,0,0,0,6.452-6.452V843.894a6.459,6.459,0,0,0-6.452-6.452Zm-12.369-16.774,2.046-2.046,7.208,7.207-2.046,2.047Zm.867,4.516-20.111,20.111-2.691-2.691,20.11-20.111Zm-24.21,19.661,6.374,6.374-9.483,4.214a.856.856,0,0,1-1.179-.764.8.8,0,0,1,.074-.341Zm3.454,10.5L607,852.717l7.533-7.533h17.53v25.807H601.1Zm5.161-5.53-2.691-2.691,20.111-20.111,2.691,2.691Zm22.268-36.682a5.1,5.1,0,1,1,7.207,7.207l-3.668,3.669-7.208-7.208ZM562.389,828.41a16.775,16.775,0,1,1,16.774,16.774,16.793,16.793,0,0,1-16.774-16.774Zm74.839,43.871a3.875,3.875,0,0,1-3.871,3.871H603.68v9.7a.641.641,0,0,1-1.007.484l-12.734-10.187H576.583a3.875,3.875,0,0,1-3.871-3.871V846.636a19.208,19.208,0,0,0,21.9-6.613h3.373l-1.668,1.668-.171.169-5.075,11.42a3.418,3.418,0,0,0,4.514,4.512l2.934-1.3v14.5a2.583,2.583,0,0,0,2.581,2.58h30.968a2.582,2.582,0,0,0,2.58-2.58V845.184a2.582,2.582,0,0,0-2.58-2.58H617.118l2.58-2.581h13.659a3.875,3.875,0,0,1,3.871,3.871Zm0,0" fill="#2d9189"/>
      <rect id="Rectangle_1078" data-name="Rectangle 1078" width="2.581" height="2.581" transform="translate(593.357 870.991)" fill="#2d9189"/>
      <rect id="Rectangle_1079" data-name="Rectangle 1079" width="15.484" height="2.581" transform="translate(575.292 870.991)" fill="#2d9189"/>
      <rect id="Rectangle_1080" data-name="Rectangle 1080" width="20.645" height="2.581" transform="translate(575.292 865.829)" fill="#2d9189"/>
      <rect id="Rectangle_1081" data-name="Rectangle 1081" width="20.645" height="2.581" transform="translate(575.292 860.668)" fill="#2d9189"/>
      <rect id="Rectangle_1082" data-name="Rectangle 1082" width="12.903" height="2.581" transform="translate(575.292 855.507)" fill="#2d9189"/>
      <rect id="Rectangle_1083" data-name="Rectangle 1083" width="12.903" height="2.581" transform="translate(575.292 850.346)" fill="#2d9189"/>
      <path id="Path_9205" data-name="Path 9205" d="M616.583,847.765a10.322,10.322,0,1,0,10.322,10.323,10.335,10.335,0,0,0-10.322-10.323Zm7.626,9.032h-6.336v-6.335a7.753,7.753,0,0,1,6.336,6.335Zm-7.626,9.032a7.737,7.737,0,0,1-1.291-15.367v8.916h8.917a7.75,7.75,0,0,1-7.626,6.451Zm0,0" fill="#2d9189"/>
    </g>
  </g>
</svg>
