<svg xmlns="http://www.w3.org/2000/svg" width="188.154" height="41.863" viewBox="0 0 188.154 41.863">
  <g id="Group_10" data-name="Group 10" transform="translate(-17.849 -57.025)">
    <g id="Group_6" data-name="Group 6" transform="translate(70.84 69.629)">
      <g id="Group_5" data-name="Group 5">
        <path id="Path_1" data-name="Path 1" d="M119.669,81.439a13.618,13.618,0,0,1-3.248-.323,4.666,4.666,0,0,1-2.078-1.04,3.88,3.88,0,0,1-1.1-1.869,10.636,10.636,0,0,1-.324-2.845v-1.9a10.8,10.8,0,0,1,.324-2.859,3.879,3.879,0,0,1,1.1-1.881,4.7,4.7,0,0,1,2.078-1.041,13.7,13.7,0,0,1,3.248-.324h4.7a13.849,13.849,0,0,1,3.271.324,4.637,4.637,0,0,1,2.078,1.053,3.98,3.98,0,0,1,1.1,1.9,10.775,10.775,0,0,1,.326,2.857v1.871a10.63,10.63,0,0,1-.326,2.845,3.893,3.893,0,0,1-1.1,1.869,4.693,4.693,0,0,1-2.078,1.04,13.771,13.771,0,0,1-3.271.323Zm7.609-7.842a6.253,6.253,0,0,0-.142-1.456,1.688,1.688,0,0,0-.52-.9,2.154,2.154,0,0,0-1.053-.441,10.268,10.268,0,0,0-1.713-.117h-3.663a10.012,10.012,0,0,0-1.7.117,2.157,2.157,0,0,0-1.041.441,1.7,1.7,0,0,0-.52.9,6.264,6.264,0,0,0-.14,1.456v1.66a6.063,6.063,0,0,0,.14,1.443,1.678,1.678,0,0,0,.52.883,2.213,2.213,0,0,0,1.041.455,8.92,8.92,0,0,0,1.7.13h3.663a9.146,9.146,0,0,0,1.713-.13,2.207,2.207,0,0,0,1.053-.455,1.668,1.668,0,0,0,.52-.883,6.052,6.052,0,0,0,.142-1.443Z" transform="translate(-6.989 -62.686)" fill="#3f4d4c"/>
        <g id="Group_3" data-name="Group 3" transform="translate(27.975)">
          <path id="Path_2" data-name="Path 2" d="M69.933,64.837a1.57,1.57,0,0,0-1.051-.272H67.608a1.518,1.518,0,0,0-1.025.272,1.17,1.17,0,0,0-.3.9v1.508a1.216,1.216,0,0,0,.3.909,1.461,1.461,0,0,0,1.025.286h1.274a1.511,1.511,0,0,0,1.051-.286,1.216,1.216,0,0,0,.3-.909V65.733A1.17,1.17,0,0,0,69.933,64.837Z" transform="translate(-66.284 -64.565)" fill="#3f4d4c"/>
          <path id="Path_3" data-name="Path 3" d="M68.907,67.58h-1.27a1.5,1.5,0,0,0-1.053.286,1.209,1.209,0,0,0-.3.908V80.1a1.209,1.209,0,0,0,.3.908,1.462,1.462,0,0,0,1.025.284h1.274a1.511,1.511,0,0,0,1.051-.284,1.209,1.209,0,0,0,.3-.908V68.774a1.2,1.2,0,0,0-.3-.908A1.452,1.452,0,0,0,68.907,67.58Z" transform="translate(-66.284 -62.54)" fill="#3f4d4c"/>
        </g>
        <g id="Group_4" data-name="Group 4" transform="translate(56.756)">
          <path id="Path_4" data-name="Path 4" d="M87.15,64.837a1.575,1.575,0,0,0-1.053-.272h-1.27a1.52,1.52,0,0,0-1.026.272,1.163,1.163,0,0,0-.3.9v1.508a1.209,1.209,0,0,0,.3.909,1.463,1.463,0,0,0,1.026.286H86.1a1.516,1.516,0,0,0,1.053-.286,1.216,1.216,0,0,0,.3-.909V65.733A1.17,1.17,0,0,0,87.15,64.837Z" transform="translate(-83.501 -64.565)" fill="#3f4d4c"/>
          <path id="Path_5" data-name="Path 5" d="M86.124,67.58H84.852a1.5,1.5,0,0,0-1.051.286,1.209,1.209,0,0,0-.3.908V80.1a1.2,1.2,0,0,0,.3.908,1.464,1.464,0,0,0,1.026.284H86.1a1.516,1.516,0,0,0,1.053-.284,1.209,1.209,0,0,0,.3-.908V68.774a1.209,1.209,0,0,0-.3-.908A1.455,1.455,0,0,0,86.124,67.58Z" transform="translate(-83.501 -62.54)" fill="#3f4d4c"/>
        </g>
        <path id="Path_6" data-name="Path 6" d="M105.56,70.608a3.894,3.894,0,0,0-1.1-1.881,4.732,4.732,0,0,0-2.076-1.041,13.864,13.864,0,0,0-3.273-.324H94.4a13.7,13.7,0,0,0-3.248.324,4.713,4.713,0,0,0-2.076,1.041,3.868,3.868,0,0,0-1.1,1.881,10.725,10.725,0,0,0-.324,2.859v6.78a1.215,1.215,0,0,0,.293.908,1.417,1.417,0,0,0,1.006.284H90.2a1.464,1.464,0,0,0,1.031-.284,1.229,1.229,0,0,0,.294-.908V73.6a6,6,0,0,1,.14-1.443,1.743,1.743,0,0,1,.507-.884,2.072,2.072,0,0,1,.976-.451,7.155,7.155,0,0,1,1.518-.132h4.209a7.343,7.343,0,0,1,1.545.132,1.971,1.971,0,0,1,.96.451,1.765,1.765,0,0,1,.495.884,6,6,0,0,1,.142,1.443v6.65a1.222,1.222,0,0,0,.294.908,1.42,1.42,0,0,0,1.006.284h1.247a1.467,1.467,0,0,0,1.031-.284,1.228,1.228,0,0,0,.293-.908v-6.78A10.8,10.8,0,0,0,105.56,70.608Z" transform="translate(-23.959 -62.686)" fill="#3f4d4c"/>
        <path id="Path_7" data-name="Path 7" d="M118.21,70.608a3.907,3.907,0,0,0-1.1-1.881,4.733,4.733,0,0,0-2.081-1.041,13.81,13.81,0,0,0-3.271-.324h-4.7a13.724,13.724,0,0,0-3.248.324,4.713,4.713,0,0,0-2.076,1.041,3.879,3.879,0,0,0-1.1,1.881,10.719,10.719,0,0,0-.326,2.859v6.78a1.221,1.221,0,0,0,.293.908,1.422,1.422,0,0,0,1.008.284h1.245a1.467,1.467,0,0,0,1.031-.284,1.222,1.222,0,0,0,.294-.908V73.6a5.912,5.912,0,0,1,.142-1.443,1.741,1.741,0,0,1,.5-.884,2.09,2.09,0,0,1,.973-.451,7.211,7.211,0,0,1,1.521-.132h4.209a7.359,7.359,0,0,1,1.546.132,1.993,1.993,0,0,1,.96.451,1.763,1.763,0,0,1,.493.884,5.9,5.9,0,0,1,.144,1.443v6.65a1.221,1.221,0,0,0,.293.908,1.415,1.415,0,0,0,1,.284h1.249a1.464,1.464,0,0,0,1.031-.284,1.221,1.221,0,0,0,.291-.908v-6.78A10.949,10.949,0,0,0,118.21,70.608Z" transform="translate(-15.464 -62.686)" fill="#3f4d4c"/>
        <path id="Path_8" data-name="Path 8" d="M89.1,70.234a3.717,3.717,0,0,0-1.1-1.613,4.916,4.916,0,0,0-1.936-.948,11.416,11.416,0,0,0-2.869-.311H80.536a1.566,1.566,0,0,0-.909.209.8.8,0,0,0-.283.672v.973a.828.828,0,0,0,.283.692,1.577,1.577,0,0,0,.909.207h2.653a2.906,2.906,0,0,1,1.842.455,2.307,2.307,0,0,1,.545,1.805v.311H75.162a9.681,9.681,0,0,0-2.4.249,3.564,3.564,0,0,0-1.493.727,2.54,2.54,0,0,0-.767,1.168,5.084,5.084,0,0,0-.222,1.57v1.326a4.788,4.788,0,0,0,.234,1.545,2.558,2.558,0,0,0,.817,1.17,4.089,4.089,0,0,0,1.573.741,10.183,10.183,0,0,0,2.519.257h7.611a14.717,14.717,0,0,0,3.1-.271,4.384,4.384,0,0,0,1.974-.921,3.47,3.47,0,0,0,1.04-1.688,9.542,9.542,0,0,0,.3-2.573V72.557A6.866,6.866,0,0,0,89.1,70.234Zm-3.52,6.038a4.349,4.349,0,0,1-.154,1.274,1.676,1.676,0,0,1-.466.766,1.762,1.762,0,0,1-.806.376,5.7,5.7,0,0,1-1.168.1H75.707a2.039,2.039,0,0,1-1.168-.286,1.171,1.171,0,0,1-.416-1.04v-.96a1.355,1.355,0,0,1,.389-1.13,1.714,1.714,0,0,1,1.065-.3h10Z" transform="translate(-35.627 -62.686)" fill="#3f4d4c"/>
        <path id="Path_9" data-name="Path 9" d="M75.709,65.247a1.559,1.559,0,0,0-1.053-.274H72.186a1.5,1.5,0,0,0-1.023.274.529.529,0,0,0-.079.084h0L62.718,79.02,54.33,65.331h0a.608.608,0,0,0-.077-.084,1.5,1.5,0,0,0-1.026-.274H50.679a1.559,1.559,0,0,0-1.053.274.733.733,0,0,0-.077.084L59.731,81.746A4.227,4.227,0,0,0,60.848,83a3.872,3.872,0,0,0,3.584,0,4.162,4.162,0,0,0,1.118-1.249L75.784,65.331h0A.607.607,0,0,0,75.709,65.247Z" transform="translate(-49.549 -64.291)" fill="#3f4d4c"/>
      </g>
    </g>
    <g id="Group_8" data-name="Group 8" transform="translate(198.895 67.814)">
      <g id="Group_7" data-name="Group 7" transform="translate(1.846 1.381)">
        <path id="Path_10" data-name="Path 10" d="M127.257,68.758V64.305h1.974a2.578,2.578,0,0,1,.9.12.974.974,0,0,1,.493.421,1.246,1.246,0,0,1,.191.672,1.133,1.133,0,0,1-.308.8,1.563,1.563,0,0,1-.949.411,1.551,1.551,0,0,1,.356.224,2.887,2.887,0,0,1,.488.59l.774,1.214h-.737l-.593-.926c-.171-.267-.308-.471-.42-.614a1.269,1.269,0,0,0-.3-.3.917.917,0,0,0-.271-.12,1.839,1.839,0,0,0-.329-.02h-.679v1.978Zm.588-2.489h1.264a1.849,1.849,0,0,0,.63-.084.673.673,0,0,0,.351-.267.719.719,0,0,0,.115-.4.662.662,0,0,0-.227-.52,1.086,1.086,0,0,0-.727-.2h-1.406Z" transform="translate(-127.257 -64.305)" fill="#3f4d4c"/>
      </g>
      <path id="Path_11" data-name="Path 11" d="M129.707,70.585a3.553,3.553,0,1,1,3.554-3.552,3.558,3.558,0,0,1-3.554,3.552Zm0-6.519a2.965,2.965,0,1,0,2.964,2.967,2.972,2.972,0,0,0-2.964-2.967Z" transform="translate(-126.153 -63.479)" fill="#3f4d4c"/>
    </g>
    <g id="Group_9" data-name="Group 9" transform="translate(17.849 57.025)">
      <path id="Path_12" data-name="Path 12" d="M28.143,81.979" transform="translate(-10.935 -40.265)" fill="#3f4d4c"/>
      <path id="Path_13" data-name="Path 13" d="M18.555,74.324A19.636,19.636,0,0,0,27.833,85a19.6,19.6,0,0,0,6.75,2.121l-.013,0A17.993,17.993,0,0,0,18.555,74.324Z" transform="translate(-17.375 -45.406)" fill="#3f4d4c"/>
      <path id="Path_14" data-name="Path 14" d="M29.688,59.848q-.466-1.061-1.041-2.081h-.02a1.261,1.261,0,0,0-.234-.3,1.538,1.538,0,0,0-2.163,0,1.413,1.413,0,0,0-.4.766,1.362,1.362,0,0,0,.04.829h-.022q.321.93.553,1.483l1.232-.339A19.969,19.969,0,0,1,29.688,59.848Z" transform="translate(-12.522 -57.025)" fill="#3f4d4c"/>
      <path id="Path_15" data-name="Path 15" d="M44.281,74.136q-.933,0-2.1.105c-.07.211-.239.657-.508,1.336a19.314,19.314,0,0,1-3.31,5.2,9.836,9.836,0,0,0,5.007-2.252A9.987,9.987,0,0,0,46.4,74.241Q45.234,74.136,44.281,74.136Z" transform="translate(-4.073 -45.532)" fill="#3f4d4c"/>
      <path id="Path_16" data-name="Path 16" d="M50.65,91.3a10.416,10.416,0,0,1-2.461-.3,9.874,9.874,0,0,0-4.9,1.867,10.8,10.8,0,0,0-2.23,2.207,19.4,19.4,0,0,1,4.054-5.408,18.311,18.311,0,0,1,9.274-4.754q.742-.15,1.568-.254a19.531,19.531,0,0,0,1.083-6.451,22.255,22.255,0,0,0-.234-3.141,21.846,21.846,0,0,0-.55-2.4,19.564,19.564,0,0,0-18.8-14.043,18.127,18.127,0,0,0-2.439.149,24.905,24.905,0,0,1,2.058,8.912,24.493,24.493,0,0,1-5.348-8.213A19.564,19.564,0,0,0,18.994,84.786a12.144,12.144,0,0,1,5.582-1.316,12.484,12.484,0,0,1,10.839,6.215,12.3,12.3,0,0,1,1.722,6.346,11.79,11.79,0,0,1-.127,1.76,3.211,3.211,0,0,0,.445.022l1.061-.042a2.974,2.974,0,0,0,.421-.022l-.254-.425a10.265,10.265,0,0,1-.445-8.8,10.246,10.246,0,0,1,2.185-3.226v-.084a27.721,27.721,0,0,0-1.229-6.155,26.885,26.885,0,0,0-2.524-5.6l-.724-1.123a26.236,26.236,0,0,0-2.036-2.7h-.023l-.04-.023c-.369-.027-.644-.04-.826-.04a6.483,6.483,0,0,0-4.52,1.74l-.109.085a1.52,1.52,0,0,1-2.058-.085,1.542,1.542,0,0,1,0-2.166l.277-.209a.51.51,0,0,1,.276-.127,6.656,6.656,0,0,1,6.981.8h.018a8.076,8.076,0,0,1,2.675-.445l.53.023a8.168,8.168,0,0,1,2.081.381,8.5,8.5,0,0,1,3.862,2.588,7.217,7.217,0,0,1,.913,1.337,8.371,8.371,0,0,1,.425,7.449,8.382,8.382,0,0,1-1.825,2.715,9.423,9.423,0,0,1-1.379,1.125l-.553.318-.191.191q.088.955.087,2.185a27.5,27.5,0,0,1-.807,6.663l-.064.234a1.938,1.938,0,0,0-.042.468,2.322,2.322,0,0,0,.613,1.61l.172.172a2.363,2.363,0,0,0,1.568.593,2.551,2.551,0,0,0,.572-.064l.064-.022.023-.023a2.355,2.355,0,0,0,.5-.2,2.277,2.277,0,0,1-.395.179,19.211,19.211,0,0,0,9.293-5.771l.127-.127-.425.04A8.7,8.7,0,0,1,50.65,91.3ZM41.484,66.114a1.382,1.382,0,1,1,.4-.976A1.326,1.326,0,0,1,41.484,66.114Z" transform="translate(-17.849 -55.95)" fill="#3f4d4c"/>
    </g>
  </g>
</svg>
