<svg xmlns="http://www.w3.org/2000/svg" width="150" height="150" viewBox="0 0 150 150">
  <g id="Group_6491" data-name="Group 6491" transform="translate(-960 -2485)">
    <g id="Ellipse_227" data-name="Ellipse 227" transform="translate(960 2485)" fill="#fff" stroke="#2d9189" stroke-width="3">
      <circle cx="75" cy="75" r="75" stroke="none"/>
      <circle cx="75" cy="75" r="73.5" fill="none"/>
    </g>
    <g id="Group_6408" data-name="Group 6408" transform="translate(-295.268 2376.891)">
      <path id="Path_9179" data-name="Path 9179" d="M1361.236,193.431a3.871,3.871,0,1,0,3.871,3.871,3.876,3.876,0,0,0-3.871-3.871Zm0,5.161a1.29,1.29,0,1,1,1.29-1.29,1.292,1.292,0,0,1-1.29,1.29Zm0,0" fill="#2d9189"/>
      <path id="Path_9180" data-name="Path 9180" d="M1357.365,184.4a12.865,12.865,0,0,0-5.162,1.094v-24.32h10.323V149.56a6.459,6.459,0,0,0-6.452-6.451h-49.032a6.458,6.458,0,0,0-6.451,6.451v60.645h-10.323v6.452a6.46,6.46,0,0,0,6.452,6.452h49.032a6.459,6.459,0,0,0,6.451-6.452v-7.546a12.9,12.9,0,1,0,5.162-24.712Zm2.58-34.839v9.032H1352.2V149.56a3.871,3.871,0,1,1,7.742,0Zm-10.322,67.1a3.871,3.871,0,0,1-7.742,0v-6.452h-36.129v2.581H1339.3v3.871a6.387,6.387,0,0,0,1.324,3.871h-43.9a3.876,3.876,0,0,1-3.871-3.871v-3.871h10.322V149.56a3.876,3.876,0,0,1,3.871-3.871h43.9a6.385,6.385,0,0,0-1.323,3.871V187a12.838,12.838,0,0,0-2.9,3.018l-3.016-3.039h-3.118v3.871h-28.817l-6.022,4.517v3.871l6.022,4.516h2.111l3.48-2.32,3.871,2.58,3.871-2.58,3.479,2.32h12v3.871h3.118l3.016-3.038a12.857,12.857,0,0,0,2.9,3.018Zm7.742-9.032a10.27,10.27,0,0,1-9.225-5.712l-.8-1.606-4.165,4.2v-3.33h-13.8l-4.262-2.841-3.871,2.58-3.871-2.58-4.263,2.841h-.469l-4.3-3.226v-1.29l4.3-3.226h30.538V190.1l4.165,4.2.8-1.606a10.318,10.318,0,1,1,9.225,14.934Zm0,0" fill="#2d9189"/>
      <path id="Path_9181" data-name="Path 9181" d="M1336.72,166.334v-1.29h-14.194v14.194h1.29a12.919,12.919,0,0,0,12.9-12.9Zm-11.613,10.243v-8.952h8.952a10.349,10.349,0,0,1-8.952,8.952Zm0,0" fill="#2d9189"/>
      <path id="Path_9182" data-name="Path 9182" d="M1318.655,174.076h1.29V162.463h11.613v-1.29a12.9,12.9,0,1,0-12.9,12.9Zm0-23.226a10.342,10.342,0,0,1,10.243,9.033h-11.533v11.533a10.323,10.323,0,0,1,1.29-20.566Zm0,0" fill="#2d9189"/>
      <rect id="Rectangle_1057" data-name="Rectangle 1057" width="2.581" height="2.581" transform="translate(1334.139 148.27)" fill="#2d9189"/>
      <rect id="Rectangle_1058" data-name="Rectangle 1058" width="7.742" height="2.581" transform="translate(1339.3 148.27)" fill="#2d9189"/>
      <rect id="Rectangle_1059" data-name="Rectangle 1059" width="2.581" height="2.581" transform="translate(1334.139 153.431)" fill="#2d9189"/>
      <rect id="Rectangle_1060" data-name="Rectangle 1060" width="7.742" height="2.581" transform="translate(1339.3 153.431)" fill="#2d9189"/>
      <rect id="Rectangle_1061" data-name="Rectangle 1061" width="2.581" height="2.581" transform="translate(1334.139 158.592)" fill="#2d9189"/>
      <rect id="Rectangle_1062" data-name="Rectangle 1062" width="7.742" height="2.581" transform="translate(1339.3 158.592)" fill="#2d9189"/>
      <rect id="Rectangle_1063" data-name="Rectangle 1063" width="2.581" height="2.581" transform="translate(1305.752 181.818)" fill="#2d9189"/>
      <rect id="Rectangle_1064" data-name="Rectangle 1064" width="36.129" height="2.581" transform="translate(1310.913 181.818)" fill="#2d9189"/>
    </g>
  </g>
</svg>
