<svg xmlns="http://www.w3.org/2000/svg" width="150" height="150" viewBox="0 0 150 150">
  <g id="Group_6493" data-name="Group 6493" transform="translate(-770 -2690)">
    <g id="Ellipse_229" data-name="Ellipse 229" transform="translate(770 2690)" fill="#fff" stroke="#2d9189" stroke-width="3">
      <circle cx="75" cy="75" r="75" stroke="none"/>
      <circle cx="75" cy="75" r="73.5" fill="none"/>
    </g>
    <g id="Group_6414" data-name="Group 6414" transform="translate(235.732 2358.796)">
      <path id="Path_9187" data-name="Path 9187" d="M595.074,411.365h2.581a6.458,6.458,0,0,1,6.452-6.451v-2.581a9.042,9.042,0,0,0-9.033,9.032Zm0,0" fill="#2d9189"/>
      <rect id="Rectangle_1068" data-name="Rectangle 1068" width="2.581" height="2.581" transform="translate(574.429 371.365)" fill="#2d9189"/>
      <rect id="Rectangle_1069" data-name="Rectangle 1069" width="2.581" height="2.581" transform="translate(579.591 371.365)" fill="#2d9189"/>
      <rect id="Rectangle_1070" data-name="Rectangle 1070" width="2.581" height="2.581" transform="translate(584.752 371.365)" fill="#2d9189"/>
      <path id="Path_9188" data-name="Path 9188" d="M645.4,403.623h-4a6.454,6.454,0,0,0-7.612-5.031V370.075a3.875,3.875,0,0,0-3.871-3.871H573.139a3.875,3.875,0,0,0-3.871,3.871v43.871a3.875,3.875,0,0,0,3.871,3.871h12.742a19.214,19.214,0,0,0,1.444,3.151l-15.919,14.125a6.356,6.356,0,1,0,8.972,8.973l14.125-15.92a19.2,19.2,0,0,0,21.217-1.335v9.07a3.875,3.875,0,0,0,3.871,3.871H645.4a3.875,3.875,0,0,0,3.871-3.871V407.494a3.875,3.875,0,0,0-3.871-3.871Zm-6.452,1.291a3.871,3.871,0,1,1-3.871-3.871,3.875,3.875,0,0,1,3.871,3.871Zm-65.806-36.13h56.774a1.293,1.293,0,0,1,1.29,1.291v6.451H571.849v-6.451a1.293,1.293,0,0,1,1.29-1.291Zm0,46.452a1.292,1.292,0,0,1-1.29-1.29V379.107H631.2v20.679a6.482,6.482,0,0,0-1.037.991l-12.083-7.368a5.151,5.151,0,1,0-10.1-1.4c0,.14.031.274.041.414a19.517,19.517,0,0,0-2.622-.361V381.688H574.429v25.806h10.712a19.456,19.456,0,0,0,0,7.742Zm48.681-11.613a19.5,19.5,0,0,0-5.691-7.423,5.139,5.139,0,0,0,.667-.554l12.134,7.4c-.059.193-.137.376-.178.576H621.82Zm-8.681-9.032a2.581,2.581,0,1,1,2.581-2.581,2.584,2.584,0,0,1-2.581,2.581Zm-10.323-2.515a19.365,19.365,0,0,0-16.935,12.838H577.01V384.268h25.806Zm-24.367,50.278a3.776,3.776,0,1,1-5.331-5.331l15.657-13.891a19.532,19.532,0,0,0,3.565,3.565Zm8.883-30.989a16.762,16.762,0,0,1,21.962-15.947,5.212,5.212,0,0,0,.923.839l-.949,1.9a14.254,14.254,0,1,0,2.306,1.159l1.1-2.193c.108.01.213.029.324.033a16.768,16.768,0,1,1-25.662,14.208Zm18.065,0a1.29,1.29,0,1,1-1.29-1.29,1.292,1.292,0,0,1,1.29,1.29Zm-.822-3.823a3.829,3.829,0,0,0-.468-.048,3.891,3.891,0,1,0,2.782,1.191l3.527-7.055a11.745,11.745,0,1,1-2.308-1.153Zm42.112,28.339a1.293,1.293,0,0,1-1.29,1.291H619.591a1.294,1.294,0,0,1-1.291-1.291v-11.4a19.173,19.173,0,0,0,4.446-18.274h6.007a6.452,6.452,0,0,0,12.643,0h4a1.292,1.292,0,0,1,1.29,1.29Zm0,0" fill="#2d9189"/>
      <path id="Path_9189" data-name="Path 9189" d="M636.365,421.688h-2.581v-5.162h-7.742v5.162h-5.161v12.9h23.226V413.946h-7.742Zm-5.162-2.581v12.9h-2.58v-12.9Zm-7.742,5.161h2.581v7.742h-2.581Zm10.323,7.742v-7.742h2.581v7.742Zm5.161-15.484h2.581V432.01h-2.581Zm0,0" fill="#2d9189"/>
      <rect id="Rectangle_1071" data-name="Rectangle 1071" width="18.065" height="2.581" transform="translate(610.558 381.688)" fill="#2d9189"/>
      <rect id="Rectangle_1072" data-name="Rectangle 1072" width="7.742" height="2.581" transform="translate(620.881 386.849)" fill="#2d9189"/>
      <rect id="Rectangle_1073" data-name="Rectangle 1073" width="2.581" height="2.581" transform="translate(574.429 410.075)" fill="#2d9189"/>
      <rect id="Rectangle_1074" data-name="Rectangle 1074" width="2.581" height="2.581" transform="translate(579.591 410.075)" fill="#2d9189"/>
      <rect id="Rectangle_1075" data-name="Rectangle 1075" width="2.581" height="2.581" transform="translate(579.591 386.849)" fill="#2d9189"/>
      <rect id="Rectangle_1076" data-name="Rectangle 1076" width="2.581" height="2.581" transform="translate(579.591 392.01)" fill="#2d9189"/>
      <rect id="Rectangle_1077" data-name="Rectangle 1077" width="2.581" height="2.581" transform="translate(579.591 397.172)" fill="#2d9189"/>
      <path id="Path_9190" data-name="Path 9190" d="M585.877,427.757l1.824-1.825,1.825,1.825-1.825,1.825Zm0,0" fill="#2d9189"/>
      <path id="Path_9191" data-name="Path 9191" d="M582.227,431.406l1.824-1.824,1.825,1.824-1.825,1.825Zm0,0" fill="#2d9189"/>
      <path id="Path_9192" data-name="Path 9192" d="M578.67,434.962l1.733-1.734,1.825,1.825-1.734,1.733Zm0,0" fill="#2d9189"/>
    </g>
  </g>
</svg>
