<svg xmlns="http://www.w3.org/2000/svg" width="150" height="150" viewBox="0 0 150 150">
  <g id="Group_6494" data-name="Group 6494" transform="translate(-770 -2880)">
    <g id="Ellipse_233" data-name="Ellipse 233" transform="translate(770 2880)" fill="#fff" stroke="#2d9189" stroke-width="3">
      <circle cx="75" cy="75" r="75" stroke="none"/>
      <circle cx="75" cy="75" r="73.5" fill="none"/>
    </g>
    <g id="Group_6415" data-name="Group 6415" transform="translate(245.191 2327.726)">
      <path id="Path_9193" data-name="Path 9193" d="M639.1,626.713,619.276,614.32V596.33a1.5,1.5,0,0,0-1.5-1.5h-1.922v-7.054a1.5,1.5,0,0,0-1.5-1.5H585.264a1.5,1.5,0,0,0-1.5,1.5v7.054h-1.922a1.5,1.5,0,0,0-1.5,1.5v12.188H561.309a1.5,1.5,0,0,0-1.5,1.5v56.466a1.5,1.5,0,0,0,1.5,1.5h77a1.5,1.5,0,0,0,1.5-1.5v-38.5A1.5,1.5,0,0,0,639.1,626.713Zm-52.338-37.438h26.087v5.554H586.765Zm-6.424,36.354H569.865a.212.212,0,0,1-.211-.211v-5.133a.211.211,0,0,1,.211-.21h10.476Zm0,14.544H569.865a.211.211,0,0,1-.211-.21v-5.134a.211.211,0,0,1,.211-.21h10.476Zm0,14.544H569.865a.211.211,0,0,1-.211-.21v-5.133a.212.212,0,0,1,.211-.211h10.476Zm-17.531-43.2h17.531v5.554H569.865a3.215,3.215,0,0,0-3.212,3.211v5.133a3.215,3.215,0,0,0,3.212,3.212h10.476v2.988H569.865a3.216,3.216,0,0,0-3.212,3.211v5.134a3.216,3.216,0,0,0,3.212,3.212h10.476v2.987H569.865a3.216,3.216,0,0,0-3.212,3.212v5.133a3.216,3.216,0,0,0,3.212,3.212h10.476v7.265H562.81Zm20.533-13.689h32.931v67.153h-3.843v-15.61a3.216,3.216,0,0,0-3.211-3.212H590.4a3.216,3.216,0,0,0-3.212,3.212v15.61h-3.843Zm17.966,51.332h7.911a.211.211,0,0,1,.21.211v15.61h-8.121Zm-3,15.821h-8.121v-15.61a.212.212,0,0,1,.211-.211h7.91Zm38.5,0H619.276V617.86l17.531,10.957Z" fill="#2d9189"/>
      <path id="Path_9194" data-name="Path 9194" d="M590.4,614.086h5.133a3.215,3.215,0,0,0,3.211-3.212v-5.133a3.215,3.215,0,0,0-3.211-3.212H590.4a3.216,3.216,0,0,0-3.212,3.212v5.133A3.216,3.216,0,0,0,590.4,614.086Zm-.211-8.345a.211.211,0,0,1,.211-.21h5.133a.21.21,0,0,1,.21.21v5.133a.211.211,0,0,1-.21.211H590.4a.212.212,0,0,1-.211-.211Z" fill="#2d9189"/>
      <path id="Path_9195" data-name="Path 9195" d="M590.4,628.63h5.133a3.214,3.214,0,0,0,3.211-3.212v-5.133a3.214,3.214,0,0,0-3.211-3.211H590.4a3.215,3.215,0,0,0-3.212,3.211v5.133A3.215,3.215,0,0,0,590.4,628.63Zm-.211-8.345a.211.211,0,0,1,.211-.21h5.133a.21.21,0,0,1,.21.21v5.133a.211.211,0,0,1-.21.211H590.4a.212.212,0,0,1-.211-.211Z" fill="#2d9189"/>
      <path id="Path_9196" data-name="Path 9196" d="M590.4,643.175h5.133a3.215,3.215,0,0,0,3.211-3.212v-5.134a3.215,3.215,0,0,0-3.211-3.211H590.4a3.216,3.216,0,0,0-3.212,3.211v5.134A3.216,3.216,0,0,0,590.4,643.175Zm-.211-8.346a.211.211,0,0,1,.211-.21h5.133a.21.21,0,0,1,.21.21v5.134a.21.21,0,0,1-.21.21H590.4a.211.211,0,0,1-.211-.21Z" fill="#2d9189"/>
      <path id="Path_9197" data-name="Path 9197" d="M604.086,614.086h5.134a3.216,3.216,0,0,0,3.211-3.212v-5.133a3.216,3.216,0,0,0-3.211-3.212h-5.134a3.216,3.216,0,0,0-3.212,3.212v5.133A3.216,3.216,0,0,0,604.086,614.086Zm-.21-8.345a.21.21,0,0,1,.21-.21h5.134a.21.21,0,0,1,.21.21v5.133a.211.211,0,0,1-.21.211h-5.134a.211.211,0,0,1-.21-.211Z" fill="#2d9189"/>
      <path id="Path_9198" data-name="Path 9198" d="M604.086,628.63h5.134a3.215,3.215,0,0,0,3.211-3.212v-5.133a3.215,3.215,0,0,0-3.211-3.211h-5.134a3.215,3.215,0,0,0-3.212,3.211v5.133A3.215,3.215,0,0,0,604.086,628.63Zm-.21-8.345a.21.21,0,0,1,.21-.21h5.134a.21.21,0,0,1,.21.21v5.133a.211.211,0,0,1-.21.211h-5.134a.211.211,0,0,1-.21-.211Z" fill="#2d9189"/>
      <path id="Path_9199" data-name="Path 9199" d="M625.475,643.175h5.133a3.216,3.216,0,0,0,3.212-3.212v-5.134a3.216,3.216,0,0,0-3.212-3.211h-5.133a3.216,3.216,0,0,0-3.212,3.211v5.134A3.216,3.216,0,0,0,625.475,643.175Zm-.211-8.346a.211.211,0,0,1,.211-.21h5.133a.21.21,0,0,1,.21.21v5.134a.21.21,0,0,1-.21.21h-5.133a.211.211,0,0,1-.211-.21Z" fill="#2d9189"/>
      <path id="Path_9200" data-name="Path 9200" d="M625.475,657.719h5.133a3.216,3.216,0,0,0,3.212-3.212v-5.133a3.216,3.216,0,0,0-3.212-3.212h-5.133a3.216,3.216,0,0,0-3.212,3.212v5.133A3.216,3.216,0,0,0,625.475,657.719Zm-.211-8.345a.212.212,0,0,1,.211-.211h5.133a.211.211,0,0,1,.21.211v5.133a.21.21,0,0,1-.21.21h-5.133a.211.211,0,0,1-.211-.21Z" fill="#2d9189"/>
      <path id="Path_9201" data-name="Path 9201" d="M604.086,643.175h5.134a3.216,3.216,0,0,0,3.211-3.212v-5.134a3.215,3.215,0,0,0-3.211-3.211h-5.134a3.216,3.216,0,0,0-3.212,3.211v5.134A3.216,3.216,0,0,0,604.086,643.175Zm-.21-8.346a.21.21,0,0,1,.21-.21h5.134a.21.21,0,0,1,.21.21v5.134a.21.21,0,0,1-.21.21h-5.134a.21.21,0,0,1-.21-.21Z" fill="#2d9189"/>
    </g>
  </g>
</svg>
