<svg xmlns="http://www.w3.org/2000/svg" width="150" height="150" viewBox="0 0 150 150">
  <g id="Group_6489" data-name="Group 6489" transform="translate(-960 -2880)">
    <g id="Ellipse_231" data-name="Ellipse 231" transform="translate(960 2880)" fill="#fff" stroke="#2d9189" stroke-width="3">
      <circle cx="75" cy="75" r="75" stroke="none"/>
      <circle cx="75" cy="75" r="73.5" fill="none"/>
    </g>
    <g id="Group_6407" data-name="Group 6407" transform="translate(-294.485 2328.619)">
      <path id="Path_9173" data-name="Path 9173" d="M1351.472,647.236a9.055,9.055,0,0,0-6.97-6.044l-8.643-1.572v-.67a13.022,13.022,0,0,0,3.856-3.424h2.611a3.885,3.885,0,0,0,3.88-3.88V616.127a16.813,16.813,0,0,0-33.626,0v9.053a5.183,5.183,0,0,0,4.124,5.066,12.959,12.959,0,0,0,6.222,8.7v.67l-8.644,1.572a9.054,9.054,0,0,0-6.969,6.044l-.517,1.553-4.405-4.405a1.3,1.3,0,0,1,0-1.83l5.109-5.107-9.589-9.589-5.773,5.774a9.051,9.051,0,0,0,0,12.8l17.479,17.479a9.048,9.048,0,0,0,12.762.039l6.3-5.772-1.965-1.961h27.752Zm-22.079-3.192-3.88-3.88V640.1a12.929,12.929,0,0,0,7.76,0v.061Zm12.933-11.1h-1.088a12.831,12.831,0,0,0,.843-2.694,5.114,5.114,0,0,0,1.538-.612v2.012A1.3,1.3,0,0,1,1342.326,632.94Zm0-9.987a2.564,2.564,0,0,1,0,4.454Zm-27.16,2.227a2.578,2.578,0,0,1,1.294-2.227v4.454A2.578,2.578,0,0,1,1315.166,625.18Zm1.294-6.467v1.477a5.157,5.157,0,0,0-1.294.536v-4.6a14.227,14.227,0,1,1,28.453,0v4.6a5.094,5.094,0,0,0-1.293-.536v-1.477h-1.294a14.231,14.231,0,0,1-10.125-4.194l-1.514-1.514-1.515,1.514a14.229,14.229,0,0,1-10.125,4.194Zm2.586,9.053v-6.515a16.772,16.772,0,0,0,10.347-4.6,16.757,16.757,0,0,0,10.346,4.6v6.515a10.278,10.278,0,0,1-1.4,5.174h-8.947v2.586h6.821a10.33,10.33,0,0,1-17.168-7.76Zm-15.205,9.681-1.4,1.4-5.931-5.931,1.405-1.4Zm12.175,26.532a6.429,6.429,0,0,1-4.573-1.9l-17.479-17.477a6.466,6.466,0,0,1,0-9.145l.711-.712,5.931,5.931-.046.047a3.886,3.886,0,0,0,0,5.487l9.274,9.275a3.859,3.859,0,0,0,2.744,1.137,3.808,3.808,0,0,0,2.7-1.092l.1-.087,5.958,5.959-.742.68A6.435,6.435,0,0,1,1316.016,663.979Zm7.223-4.324-5.945-5.945,1.708-1.544,5.935,5.935Zm.889-6.022-5.038-5.038-5.6,5.063a1.32,1.32,0,0,1-1.829,0l-2.825-2.824.926-2.781a6.469,6.469,0,0,1,4.978-4.318l9.041-1.643,5.609,5.609,5.607-5.607,9.039,1.642a6.465,6.465,0,0,1,4.978,4.319l1.861,5.578Z" fill="#2d9189"/>
      <path id="Path_9174" data-name="Path 9174" d="M1365.6,586.381H1347.5a3.884,3.884,0,0,0-3.88,3.88v10.346a3.885,3.885,0,0,0,3.88,3.88h3.454l-1.337,7.8,12.48-7.8h3.509a3.885,3.885,0,0,0,3.88-3.88V590.261A3.884,3.884,0,0,0,1365.6,586.381Zm1.294,14.226a1.3,1.3,0,0,1-1.294,1.293h-4.251l-8.214,5.133.881-5.133H1347.5a1.294,1.294,0,0,1-1.293-1.293V590.261a1.3,1.3,0,0,1,1.293-1.294H1365.6a1.3,1.3,0,0,1,1.294,1.294Z" fill="#2d9189"/>
      <rect id="Rectangle_1054" data-name="Rectangle 1054" width="15.52" height="2.587" transform="translate(1348.792 591.554)" fill="#2d9189"/>
      <rect id="Rectangle_1055" data-name="Rectangle 1055" width="10.346" height="2.587" transform="translate(1348.792 596.727)" fill="#2d9189"/>
      <rect id="Rectangle_1056" data-name="Rectangle 1056" width="2.587" height="2.587" transform="translate(1361.725 596.727)" fill="#2d9189"/>
      <path id="Path_9175" data-name="Path 9175" d="M1301.606,618.528l-1.331-2.218-3.505,2.1a33.636,33.636,0,0,1,42.586-24.066l.766-2.47a36.216,36.216,0,0,0-45.968,26.377l-2.451-4.085-2.218,1.33,4.546,7.575Z" fill="#2d9189"/>
      <path id="Path_9176" data-name="Path 9176" d="M1356.737,618.047l2.218,1.331,2.263-3.773a33.652,33.652,0,0,1-5.7,32.04l2.008,1.629a36.22,36.22,0,0,0,6.2-34.319l3.8,2.28,1.331-2.218-7.575-4.546Z" fill="#2d9189"/>
    </g>
  </g>
</svg>
