<svg xmlns="http://www.w3.org/2000/svg" width="150" height="150" viewBox="0 0 150 150">
  <g id="Group_6492" data-name="Group 6492" transform="translate(-770 -2485)">
    <g id="Ellipse_228" data-name="Ellipse 228" transform="translate(770 2485)" fill="#fff" stroke="#2d9189" stroke-width="3">
      <circle cx="75" cy="75" r="75" stroke="none"/>
      <circle cx="75" cy="75" r="73.5" fill="none"/>
    </g>
    <g id="Group_6413" data-name="Group 6413" transform="translate(245.191 2377.092)">
      <path id="Path_9183" data-name="Path 9183" d="M612.712,197.6a10.418,10.418,0,1,0,10.322,10.418A10.383,10.383,0,0,0,612.712,197.6Zm0,18.232a7.814,7.814,0,1,1,7.742-7.814,7.786,7.786,0,0,1-7.742,7.814Zm0,0" fill="#2d9189"/>
      <path id="Path_9184" data-name="Path 9184" d="M612.712,202.812a5.209,5.209,0,1,0,5.161,5.209,5.191,5.191,0,0,0-5.161-5.209Zm0,7.814a2.6,2.6,0,1,1,2.58-2.605,2.6,2.6,0,0,1-2.58,2.605Zm0,0" fill="#2d9189"/>
      <path id="Path_9185" data-name="Path 9185" d="M628.2,191.092v2.6h11.613v-11.72h-2.581v7.274l-5.893-5.947a5.162,5.162,0,1,0-8.859,0l-9.026,9.11c-.247-.006-.492-.019-.738-.019-.427,0-.853.014-1.278.031l-11.307-32.332a9.04,9.04,0,1,0-9.338-.589l-5.386,10.87a5.109,5.109,0,0,0-1.078-.119,5.192,5.192,0,0,0-5.162,5.21c0,.15.032.294.044.441l-9.783,3.485a5.138,5.138,0,0,0-4.454-2.624,5.209,5.209,0,1,0,5.161,5.209c0-.025-.007-.047-.007-.071l9.92-3.534a5.169,5.169,0,1,0,7.659-6.813l5.394-10.887a8.847,8.847,0,0,0,4.6.293l11.078,31.678a31.929,31.929,0,0,0-12.837,4.457V184.58H585.613v36.464h-2.58v-28.65H572.71v28.65h-2.579V200.207H559.809v23.441h52.9a32.074,32.074,0,0,0,22.939-9.59l2.867-2.893a4.474,4.474,0,0,0,0-6.288l-2.867-2.893a32.085,32.085,0,0,0-18.8-9.32l7.452-7.52a4.963,4.963,0,0,0,5.211,0l5.893,5.948ZM564.97,184.58a2.6,2.6,0,1,1,2.581-2.6,2.6,2.6,0,0,1-2.581,2.6Zm19.355-6.511a2.6,2.6,0,1,1,2.58-2.6,2.6,2.6,0,0,1-2.58,2.6Zm5.161-26.045a6.452,6.452,0,1,1,6.452,6.511,6.488,6.488,0,0,1-6.452-6.511Zm-21.935,69.02h-5.162V202.812h5.162ZM601.6,197.16a15.671,15.671,0,0,0,0,21.722,29.778,29.778,0,0,1-10.005-6.665l-2.867-2.894a1.854,1.854,0,0,1,0-2.6l2.867-2.894A29.778,29.778,0,0,1,601.6,197.16Zm-8.245-9.975v11.669a33.046,33.046,0,0,0-3.585,3.131l-1.576,1.59v-16.39ZM575.292,195h5.162v26.046h-5.162Zm12.9,26.046v-8.577l1.576,1.591A32.406,32.406,0,0,0,600,221.044Zm11.613-13.023a12.9,12.9,0,1,1,12.9,13.023,12.978,12.978,0,0,1-12.9-13.023Zm36.885-1.3a1.854,1.854,0,0,1,0,2.6l-2.867,2.894a29.793,29.793,0,0,1-10.006,6.665,15.669,15.669,0,0,0,0-21.722,29.783,29.783,0,0,1,10.006,6.665Zm-9.789-23.441a2.6,2.6,0,1,1,2.581-2.6,2.595,2.595,0,0,1-2.581,2.6Zm0,0" fill="#2d9189"/>
      <path id="Path_9186" data-name="Path 9186" d="M615.292,167.651h2.047l4.249,4.288a3.08,3.08,0,0,0,2.2.921,3.132,3.132,0,0,0,3.114-3.144v-2.065h3.871a3.893,3.893,0,0,0,3.871-3.907V153.326a3.893,3.893,0,0,0-3.871-3.907H615.292a3.894,3.894,0,0,0-3.871,3.907v10.418a3.893,3.893,0,0,0,3.871,3.907ZM614,153.326a1.3,1.3,0,0,1,1.29-1.3h15.484a1.3,1.3,0,0,1,1.291,1.3v10.418a1.3,1.3,0,0,1-1.291,1.3h-6.451v4.67a.554.554,0,0,1-.913.382l-5.005-5.052h-3.115a1.3,1.3,0,0,1-1.29-1.3Zm0,0" fill="#2d9189"/>
      <rect id="Rectangle_1065" data-name="Rectangle 1065" width="12.903" height="2.605" transform="translate(616.583 154.628)" fill="#2d9189"/>
      <rect id="Rectangle_1066" data-name="Rectangle 1066" width="2.581" height="2.605" transform="translate(626.905 159.837)" fill="#2d9189"/>
      <rect id="Rectangle_1067" data-name="Rectangle 1067" width="7.742" height="2.605" transform="translate(616.583 159.837)" fill="#2d9189"/>
    </g>
  </g>
</svg>
